<?xml version="1.0" encoding="utf-8"?>
<!-- Generator: Adobe Illustrator 23.0.5, SVG Export Plug-In . SVG Version: 6.00 Build 0)  -->
<svg version="1.1" id="Layer1" xmlns="http://www.w3.org/2000/svg" xmlns:xlink="http://www.w3.org/1999/xlink" x="0px" y="0px"
	 viewBox="0 0 220.8 255.1" style="enable-background:new 0 0 220.8 255.1;" xml:space="preserve">
<style type="text/css">
	.Arched_x0020_Green{fill:url(#SVGID_1_);stroke:#FFFFFF;stroke-width:0.25;stroke-miterlimit:1;}
	.st0{fill:#648290;}
	.st1{fill:#FFDF4F;}
	.st2{fill:#EF4130;}
	.st3{fill:#94B0BE;}
	.st4{fill:#F15B40;}
	.st5{fill:#C53526;}
</style>
<linearGradient id="SVGID_1_" gradientUnits="userSpaceOnUse" x1="-59.6851" y1="268.1938" x2="-58.978" y2="267.4867">
	<stop  offset="0" style="stop-color:#20AC4B"/>
	<stop  offset="0.9831" style="stop-color:#19361A"/>
</linearGradient>
<rect x="32.5" y="191.4" class="st0" width="6.6" height="12.9"/>
<rect x="181.7" y="191.7" class="st0" width="6.6" height="12.9"/>
<g>
	<g>
		<path class="st1" d="M17.7,190.5c-4.9,0-8.9-2-11-5.6c-2-3.5-1.8-8,0.7-12.3l92.7-160.6c2.5-4.3,6.2-6.7,10.3-6.7
			c4.1,0,7.8,2.5,10.3,6.7l92.7,160.6c2.5,4.3,2.7,8.7,0.7,12.3c-2,3.5-6,5.6-11,5.6H17.7z"/>
		<path class="st2" d="M110.4,10.7c2.1,0,4.1,1.4,5.7,4.1l92.7,160.6c3.1,5.4,0.6,9.8-5.7,9.8H17.7c-6.2,0-8.8-4.4-5.7-9.8
			l92.7-160.6C106.3,12,108.3,10.7,110.4,10.7 M110.4,0c-6,0-11.5,3.4-14.9,9.4L2.8,170c-3.4,6-3.7,12.4-0.7,17.6
			c3,5.2,8.7,8.2,15.6,8.2h185.4c6.9,0,12.6-3,15.6-8.2c3-5.2,2.8-11.6-0.7-17.6L125.3,9.4C121.9,3.4,116.4,0,110.4,0L110.4,0z"/>
	</g>
	<g>
		<path class="st0" d="M132.6,145.9c3.5-3,6.9-4.6,6.9-4.6s-6.3-2.3-12-7c-5.1-4.2-20.6-19.6-25.6-25.5c-5-5.9-7.2-13.1-7.2-13.1
			s-2.2,5.9-5.6,8.9c-3.5,3-6.9,4.6-6.9,4.6s6.3,2.3,12,7c5.1,4.2,20.6,19.6,25.6,25.5c5,5.9,7.2,13.1,7.2,13.1
			S129.1,148.9,132.6,145.9z"/>
		<g>
			<polygon class="st3" points="144.7,95.8 150.1,86.4 147.9,84.2 138.5,89.6 135.6,96.7 101.8,130.5 104.2,132.9 138,99.1 			"/>
			<g>
				<path class="st2" d="M100,142.9c1.7-1.7,4-2.2,5.6-1.4l0.6-0.6c3.5-3.5,0.4-6.1-3.1-9.7c-3.5-3.5-6.1-6.7-9.7-3.1l-0.6,0.6
					c0.9,1.5,0.3,3.8-1.4,5.6c-1.7,1.7-4,2.2-5.6,1.4l-20.6,20.6c-3.5,3.5-3.5,9.3,0,12.8c3.5,3.5,9.3,3.5,12.8,0l20.6-20.6
					C97.7,147,98.3,144.6,100,142.9z"/>
				<path class="st4" d="M102.6,131.6c-2.9-2.9-5.2-5.5-7.6-4.2c0,0,1,0,2.5,1.6c1.6,1.6,5.9,5.9,7.6,7.6c1.7,1.7,1.7,2.6,1.7,2.6
					C108.1,136.8,105.5,134.5,102.6,131.6z"/>
				<path class="st5" d="M98.6,148.5c-0.9-1.5-0.3-3.8,1.4-5.6c1.6-1.6,3.8-2.2,5.3-1.5l-12.5-12.5c0.7,1.5,0.2,3.7-1.5,5.3
					c-1.7,1.7-4,2.2-5.6,1.4l-0.2,0.2l12.8,12.8L98.6,148.5z"/>
				<path class="st5" d="M63.9,159.4c0,0-2.4,4.5,1.9,8.8c4.3,4.3,8.8,2.2,8.8,2.2s-3.2,0.2-7.1-3.7
					C63.7,162.9,63.9,159.4,63.9,159.4z"/>
			</g>
		</g>
		<path class="st3" d="M77.2,81.4c0,0,7.1-5.6,15.1,3.8c8,9.4-0.4,17.4-3.1,20.2c-2.8,2.8-13.5,9.4-21.3,1.6
			c-7.8-7.8-2.6-15.3-2.6-15.3l7.6,9.2c0,0,5.6,2.6,9.8-1c4.1-3.6,2.7-8.8,2.7-8.8L77.2,81.4z"/>
		<path class="st3" d="M144.5,169.1c0,0-7.1,5.6-15.1-3.8c-8-9.4,0.4-17.4,3.1-20.2c2.8-2.8,13.5-9.4,21.3-1.6
			c7.8,7.8,2.6,15.3,2.6,15.3l-7.6-9.2c0,0-5.6-2.6-9.8,1c-4.1,3.6-2.7,8.8-2.7,8.8L144.5,169.1z"/>
	</g>
</g>
<g>
	<path class="st1" d="M215.4,233.6c0,8.9-7.2,16.2-16.2,16.2H21.6c-8.9,0-16.2-7.2-16.2-16.2V222c0-8.9,7.2-16.2,16.2-16.2h177.7
		c8.9,0,16.2,7.2,16.2,16.2V233.6z"/>
	<path class="st0" d="M199.2,205.8c8.9,0,16.2,7.2,16.2,16.2v11.6c0,8.9-7.2,16.2-16.2,16.2H21.6c-8.9,0-16.2-7.2-16.2-16.2V222
		c0-8.9,7.2-16.2,16.2-16.2H199.2 M199.2,200.4H21.6C9.7,200.4,0,210.1,0,222v11.6c0,11.9,9.7,21.6,21.6,21.6h177.7
		c11.9,0,21.6-9.7,21.6-21.6V222C220.8,210.1,211.1,200.4,199.2,200.4L199.2,200.4z"/>
</g>
<g>
	<path class="st2" d="M16.5,220v10c0,2.3,0.7,3,1.6,3c0.9,0,1.6-0.6,1.6-3v-10H23v9.5c0,4-1.6,6.1-4.9,6.1c-3.5,0-4.9-2.2-4.9-6.1
		V220H16.5z"/>
	<path class="st2" d="M26.1,235.5V220h3l2.6,6c0.5,1.2,1.3,3.2,1.8,4.5h0c-0.1-1.6-0.3-4.3-0.3-7.1V220h2.9v15.4h-3l-2.6-5.9
		c-0.6-1.3-1.3-3.3-1.7-4.6h-0.1c0.1,1.6,0.2,3.9,0.2,7.1v3.5H26.1z"/>
	<path class="st2" d="M39.2,220.3c0.8-0.2,2-0.3,3.3-0.3c2.1,0,3.6,0.5,4.7,1.4c1.4,1.2,2.2,3.2,2.2,6.2c0,3.1-0.9,5.3-2.3,6.5
		c-1.1,1-2.8,1.5-5.1,1.5c-1,0-2.1-0.1-2.7-0.2V220.3z M42.5,233.1c0.2,0,0.4,0,0.6,0c1.6,0,2.9-1.4,2.9-5.7c0-3.2-0.9-5.1-2.9-5.1
		c-0.2,0-0.4,0-0.6,0.1V233.1z"/>
	<path class="st2" d="M58.8,228.7H55v4.2h4.3v2.6h-7.6V220H59v2.6h-4v3.5h3.8V228.7z"/>
	<path class="st2" d="M61.8,220.3c1-0.2,2.3-0.3,3.6-0.3c1.8,0,3.4,0.3,4.5,1.1c1,0.8,1.3,1.9,1.3,3.2c0,1.6-0.9,3.1-2.6,3.8v0
		c1.1,0.4,1.7,1.4,2,3.1c0.3,1.7,0.8,3.6,1.1,4.2h-3.4c-0.2-0.4-0.6-2-0.8-3.7c-0.3-1.9-0.8-2.5-1.9-2.5h-0.5v6.2h-3.3V220.3z
		 M65.1,227h0.6c1.4,0,2.2-1.1,2.2-2.4c0-1.3-0.6-2.2-2-2.3c-0.3,0-0.6,0-0.8,0.1V227z"/>
	<path class="st2" d="M86.1,235.3c-0.5,0.2-1.4,0.4-2.5,0.4c-4.3,0-6.4-3.2-6.4-7.6c0-5.8,3.5-8.1,6.8-8.1c1.1,0,1.9,0.2,2.3,0.4
		l-0.5,2.5c-0.4-0.2-0.8-0.3-1.5-0.3c-1.8,0-3.5,1.5-3.5,5.3c0,3.7,1.5,5.1,3.5,5.1c0.5,0,1.2-0.1,1.6-0.2L86.1,235.3z"/>
	<path class="st2" d="M97.8,227.5c0,5.8-2.2,8.2-5.4,8.2c-3.8,0-5.3-3.7-5.3-7.9c0-4.2,1.8-7.9,5.6-7.9
		C96.6,219.9,97.8,224,97.8,227.5z M90.4,227.8c0,3.5,0.7,5.3,2,5.3c1.4,0,1.9-2.3,1.9-5.4c0-2.7-0.4-5.2-1.9-5.2
		C91.1,222.5,90.4,224.4,90.4,227.8z"/>
	<path class="st2" d="M100.1,235.5V220h3l2.6,6c0.5,1.2,1.3,3.2,1.8,4.5h0.1c-0.1-1.6-0.3-4.3-0.3-7.1V220h2.9v15.4h-3l-2.6-5.9
		c-0.6-1.3-1.3-3.3-1.7-4.6h-0.1c0.1,1.6,0.2,3.9,0.2,7.1v3.5H100.1z"/>
	<path class="st2" d="M112.8,232.4c0.7,0.3,1.8,0.6,2.8,0.6c1.5,0,2.3-0.7,2.3-1.7c0-1.1-0.8-1.7-2.2-2.5c-2.3-1.3-3.2-2.9-3.2-4.3
		c0-2.5,1.8-4.5,5.3-4.5c1.1,0,2.2,0.3,2.6,0.6L120,223c-0.5-0.3-1.2-0.5-2.1-0.5c-1.4,0-2.1,0.8-2.1,1.6c0,0.9,0.5,1.4,2.3,2.4
		c2.2,1.2,3,2.8,3,4.4c0,2.8-2.3,4.7-5.5,4.7c-1.3,0-2.6-0.3-3.2-0.6L112.8,232.4z"/>
	<path class="st2" d="M125.1,222.8h-3V220h9.2v2.8h-3v12.7h-3.3V222.8z"/>
	<path class="st2" d="M133.4,220.3c1-0.2,2.3-0.3,3.6-0.3c1.8,0,3.4,0.3,4.5,1.1c1,0.8,1.3,1.9,1.3,3.2c0,1.6-0.9,3.1-2.6,3.8v0
		c1.1,0.4,1.7,1.4,2,3.1c0.3,1.7,0.8,3.6,1.1,4.2h-3.4c-0.2-0.4-0.6-2-0.8-3.7c-0.3-1.9-0.8-2.5-1.9-2.5h-0.5v6.2h-3.3V220.3z
		 M136.6,227h0.6c1.4,0,2.2-1.1,2.2-2.4c0-1.3-0.6-2.2-2-2.3c-0.3,0-0.6,0-0.8,0.1V227z"/>
	<path class="st2" d="M148.5,220v10c0,2.3,0.7,3,1.6,3c1,0,1.6-0.6,1.6-3v-10h3.3v9.5c0,4-1.6,6.1-4.9,6.1c-3.5,0-4.9-2.2-4.9-6.1
		V220H148.5z"/>
	<path class="st2" d="M166.1,235.3c-0.5,0.2-1.4,0.4-2.5,0.4c-4.3,0-6.4-3.2-6.4-7.6c0-5.8,3.5-8.1,6.8-8.1c1.1,0,1.9,0.2,2.3,0.4
		l-0.5,2.5c-0.4-0.2-0.8-0.3-1.5-0.3c-1.8,0-3.5,1.5-3.5,5.3c0,3.7,1.5,5.1,3.5,5.1c0.5,0,1.2-0.1,1.6-0.2L166.1,235.3z"/>
	<path class="st2" d="M170.6,222.8h-3V220h9.2v2.8h-3v12.7h-3.3V222.8z"/>
	<path class="st2" d="M182.1,220v15.4h-3.3V220H182.1z"/>
	<path class="st2" d="M195.2,227.5c0,5.8-2.2,8.2-5.4,8.2c-3.8,0-5.3-3.7-5.3-7.9c0-4.2,1.8-7.9,5.6-7.9
		C194.1,219.9,195.2,224,195.2,227.5z M187.9,227.8c0,3.5,0.7,5.3,2,5.3c1.4,0,1.9-2.3,1.9-5.4c0-2.7-0.5-5.2-1.9-5.2
		C188.6,222.5,187.9,224.4,187.9,227.8z"/>
	<path class="st2" d="M197.6,235.5V220h3l2.6,6c0.5,1.2,1.3,3.2,1.8,4.5h0.1c-0.1-1.6-0.3-4.3-0.3-7.1V220h2.9v15.4h-3l-2.6-5.9
		c-0.6-1.3-1.3-3.3-1.7-4.6h0c0.1,1.6,0.2,3.9,0.2,7.1v3.5H197.6z"/>
</g>
</svg>
